HIERARCHY
ROOT Hips
{
	OFFSET -32.860001 56.121803 44.745396
	CHANNELS 6 Xposition Yposition Zposition Zrotation Xrotation Yrotation
	JOINT Chest
	{
		OFFSET -0.637402 0.831600 5.390099
		CHANNELS 6 Xposition Yposition Zposition Zrotation Xrotation Yrotation
		JOINT Chest2
		{
			OFFSET 0.000000 0.000000 4.429901
			CHANNELS 6 Xposition Yposition Zposition Zrotation Xrotation Yrotation
			JOINT Neck
			{
				OFFSET 0.000000 0.000000 10.301395
				CHANNELS 6 Xposition Yposition Zposition Zrotation Xrotation Yrotation
				JOINT Head
				{
					OFFSET 0.000000 0.000000 2.173897
					CHANNELS 6 Xposition Yposition Zposition Zrotation Xrotation Yrotation
					End Site
					{
						OFFSET 0.000000 0.000000 8.298004
					}
				}
			}
			JOINT LeftCollar
			{
				OFFSET 2.142401 -0.572701 5.717800
				CHANNELS 6 Xposition Yposition Zposition Zrotation Xrotation Yrotation
				JOINT LeftShoulder
				{
					OFFSET 5.674000 0.000000 0.000000
					CHANNELS 6 Xposition Yposition Zposition Zrotation Xrotation Yrotation
					JOINT LeftElbow
					{
						OFFSET 0.000000 0.000000 -12.238701
						CHANNELS 6 Xposition Yposition Zposition Zrotation Xrotation Yrotation
						JOINT LeftWrist
						{
							OFFSET 0.000000 0.000000 -10.253700
							CHANNELS 6 Xposition Yposition Zposition Zrotation Xrotation Yrotation
							End Site
							{
								OFFSET 0.000000 0.000000 -2.173901
							}
						}
					}
				}
			}
			JOINT RightCollar
			{
				OFFSET -2.882599 -1.580101 6.695801
				CHANNELS 6 Xposition Yposition Zposition Zrotation Xrotation Yrotation
				JOINT RightShoulder
				{
					OFFSET -4.235600 0.000000 0.000000
					CHANNELS 6 Xposition Yposition Zposition Zrotation Xrotation Yrotation
					JOINT RightElbow
					{
						OFFSET 0.000000 0.000000 -10.709900
						CHANNELS 6 Xposition Yposition Zposition Zrotation Xrotation Yrotation
						JOINT RightWrist
						{
							OFFSET 0.000000 0.000000 -11.716801
							CHANNELS 6 Xposition Yposition Zposition Zrotation Xrotation Yrotation
							End Site
							{
								OFFSET 0.000000 0.000000 -2.173901
							}
						}
					}
				}
			}
		}
	}
	JOINT LeftHip
	{
		OFFSET 2.279499 0.210400 -2.475502
		CHANNELS 6 Xposition Yposition Zposition Zrotation Xrotation Yrotation
		JOINT LeftKnee
		{
			OFFSET 0.000000 -0.000004 -20.742800
			CHANNELS 6 Xposition Yposition Zposition Zrotation Xrotation Yrotation
			JOINT LeftAnkle
			{
				OFFSET 0.000000 0.000000 -16.666000
				CHANNELS 6 Xposition Yposition Zposition Zrotation Xrotation Yrotation
				End Site
				{
					OFFSET 0.000000 -8.310898 0.000000
				}
			}
		}
	}
	JOINT RightHip
	{
		OFFSET -1.961899 0.232300 -2.727402
		CHANNELS 6 Xposition Yposition Zposition Zrotation Xrotation Yrotation
		JOINT RightKnee
		{
			OFFSET 0.000000 -0.000004 -20.526800
			CHANNELS 6 Xposition Yposition Zposition Zrotation Xrotation Yrotation
			JOINT RightAnkle
			{
				OFFSET 0.000000 0.000000 -16.867300
				CHANNELS 6 Xposition Yposition Zposition Zrotation Xrotation Yrotation
				End Site
				{
					OFFSET 0.000000 -7.186401 0.000000
				}
			}
		}
	}
}
MOTION
Frames: 10
Frame Time: 0.041667
-35.376896 45.358402 45.080589 1085.800309 0.206651 -3.597160 -0.637399 0.831596 5.390100 -5.669668 -0.187268 1.468786 0.000002 -0.000001 4.429895 5.696252 -0.330121 0.496909 -0.000005 -0.000009 10.301398 409.394599 -6.777205 -5.826621 -0.000001 -0.000008 2.173900 -356.688871 1.880995 4.247115 2.142395 -0.572704 5.717801 0.372961 -3.411044 -2.110004 5.674000 0.000002 -0.000006 170.792282 158.100206 126.960622 0.000002 0.000004 -12.238695 201.406200 -517.509281 -161.754712 0.000001 0.000007 -10.253703 -557.255354 -7.087257 22.863959 -2.882599 -1.580095 6.695792 -0.505716 -4.400644 29.539834 -4.235606 0.000003 -0.000004 4.810786 -67.366839 97.850540 0.000019 -0.000006 -10.709908 -63.912498 -19.445974 -25.939646 -0.000001 0.000000 -11.716796 -361.057132 1.005694 15.409182 2.279504 0.210401 -2.475504 375.558197 -14.426171 -5.069789 -0.000002 -0.000007 -20.742800 -16.899602 30.662092 1.183459 0.000002 -0.000000 -16.666000 2.955307 22.203886 13.034172 -1.961891 0.232302 -2.727407 -365.231716 -3.403123 12.631587 0.000002 -0.000001 -20.526800 515.677588 158.409900 -178.206698 -0.000000 0.000002 -16.867304 -358.112556 26.660142 -6.769390
-35.373795 45.352806 45.081093 1085.816920 0.194121 -3.607292 -0.637400 0.831598 5.390104 -5.686164 -0.183648 1.473556 0.000000 -0.000007 4.429893 5.706274 -0.320881 0.496052 -0.000004 0.000010 10.301397 409.431756 -6.778304 -5.838990 -0.000001 0.000005 2.173898 -356.656988 1.875014 4.265699 2.142395 -0.572690 5.717797 0.300792 -3.388736 -2.082497 5.674004 -0.000000 -0.000002 170.882864 158.089660 126.961469 0.000006 -0.000002 -12.238705 201.410148 -517.474529 -161.770012 0.000001 0.000006 -10.253702 -557.318301 -7.038853 22.945814 -2.882600 -1.580091 6.695796 -0.580087 -4.357362 29.457831 -4.235614 0.000005 0.000002 5.053455 -67.333282 98.026315 -0.000003 -0.000008 -10.709900 -63.893496 -19.509097 -25.884721 -0.000000 0.000003 -11.716801 -361.127237 1.011148 15.461035 2.279500 0.210400 -2.475497 375.528035 -14.404951 -5.059218 -0.000000 -0.000005 -20.742802 -16.929886 30.672730 1.199595 0.000000 -0.000003 -16.665997 2.978939 22.231038 13.087716 -1.961892 0.232294 -2.727405 -365.233738 -3.414597 12.647138 -0.000003 -0.000003 -20.526794 515.532515 158.376774 -178.140691 -0.000005 -0.000002 -16.867298 -357.989202 26.647404 -6.800235
-35.371494 45.347908 45.081192 1085.835498 0.180183 -3.610083 -0.637404 0.831608 5.390096 -5.704092 -0.179061 1.468273 0.000001 -0.000004 4.429908 5.716811 -0.313863 0.495017 -0.000004 0.000006 10.301396 409.467163 -6.768389 -5.850414 0.000003 -0.000013 2.173898 -356.623328 1.868430 4.281780 2.142398 -0.572698 5.717803 0.242752 -3.369366 -2.062277 5.673994 -0.000010 -0.000004 170.959334 158.091927 126.969214 0.000001 0.000001 -12.238703 201.393578 -517.446225 -161.800269 0.000001 -0.000007 -10.253701 -557.477854 -6.982846 22.855210 -2.882601 -1.580095 6.695798 -0.636949 -4.322861 29.403073 -4.235608 -0.000001 -0.000003 5.272609 -67.338692 98.174311 0.000006 -0.000008 -10.709896 -63.785279 -19.579446 -25.798463 0.000005 0.000010 -11.716801 -361.216494 1.039516 15.505197 2.279495 0.210405 -2.475503 375.519402 -14.395872 -5.053090 -0.000004 -0.000008 -20.742800 -16.880375 30.685431 1.176248 0.000002 -0.000002 -16.665997 2.912913 22.269212 13.129204 -1.961897 0.232309 -2.727398 -365.226143 -3.417051 12.651897 0.000001 -0.000003 -20.526808 515.404873 158.352294 -178.082265 -0.000001 -0.000006 -16.867300 -357.899044 26.807881 -6.855180
-35.369896 45.343407 45.080692 1085.852000 0.165170 -3.604893 -0.637400 0.831602 5.390097 -5.719925 -0.174230 1.451063 -0.000006 0.000004 4.429902 5.729762 -0.308000 0.494310 -0.000003 -0.000009 10.301406 409.497653 -6.743654 -5.864278 0.000000 -0.000010 2.173903 -356.587238 1.867817 4.290321 2.142400 -0.572702 5.717806 0.214120 -3.358007 -2.043056 5.674002 0.000002 -0.000006 170.997980 158.092884 126.979774 0.000003 0.000000 -12.238697 201.376229 -517.414697 -161.831606 0.000001 -0.000000 -10.253696 -557.594787 -6.952227 22.748602 -2.882606 -1.580104 6.695794 -0.671826 -4.302977 29.377982 -4.235604 0.000004 -0.000000 5.381263 -67.305633 98.220559 0.000005 -0.000002 -10.709898 -63.692279 -19.653772 -25.711253 0.000001 0.000008 -11.716810 -361.301298 1.088183 15.522293 2.279500 0.210406 -2.475492 375.505987 -14.387529 -5.057312 0.000001 -0.000010 -20.742802 -16.769480 30.690584 1.128464 0.000001 0.000003 -16.666002 2.800963 22.319187 13.162465 -1.961896 0.232304 -2.727405 -365.185763 -3.389399 12.649720 0.000004 -0.000005 -20.526802 515.313840 158.353537 -178.061966 -0.000001 0.000002 -16.867300 -357.862325 26.809949 -6.880727
-35.368599 45.339409 45.079487 1085.866643 0.148567 -3.592879 -0.637401 0.831593 5.390099 -5.733242 -0.170365 1.422197 -0.000004 0.000009 4.429897 5.744714 -0.302707 0.493770 0.000003 0.000010 10.301392 409.520493 -6.700436 -5.882902 -0.000005 -0.000004 2.173901 -356.548524 1.875348 4.290772 2.142400 -0.572703 5.717803 0.214826 -3.353106 -2.021978 5.674000 -0.000000 -0.000004 171.004919 158.088471 126.991084 0.000005 -0.000001 -12.238694 201.361353 -517.366339 -161.862643 0.000007 0.000001 -10.253699 -557.659483 -6.955051 22.631675 -2.882602 -1.580096 6.695796 -0.684890 -4.298040 29.375301 -4.235608 -0.000000 0.000005 5.441449 -67.255855 98.221467 0.000008 0.000010 -10.709892 -63.631012 -19.711699 -25.625982 0.000000 -0.000004 -11.716818 -361.337224 1.144867 15.491987 2.279505 0.210402 -2.475502 375.469214 -14.374760 -5.074085 0.000000 -0.000006 -20.742800 -16.620709 30.688720 1.070983 0.000001 -0.000001 -16.666000 2.678198 22.379274 13.195289 -1.961895 0.232301 -2.727406 -365.155437 -3.361931 12.641901 0.000003 -0.000008 -20.526806 515.244664 158.352786 -178.047391 0.000003 -0.000000 -16.867304 -357.831015 26.807499 -6.900812
-35.367496 45.335503 45.077896 1085.877244 0.129703 -3.578880 -0.637401 0.831604 5.390098 -5.742263 -0.166248 1.388035 0.000006 -0.000001 4.429900 5.762274 -0.297999 0.493202 0.000008 0.000002 10.301398 409.533662 -6.640907 -5.904473 0.000000 0.000004 2.173901 -356.504128 1.898717 4.280537 2.142393 -0.572694 5.717797 0.244560 -3.356049 -2.003655 5.673997 0.000000 0.000006 170.989619 158.086982 127.005018 0.000010 0.000005 -12.238701 201.338677 -517.286562 -161.896343 0.000003 -0.000002 -10.253704 -557.645713 -7.004329 22.489926 -2.882599 -1.580092 6.695788 -0.678218 -4.307735 29.392736 -4.235605 0.000007 -0.000007 5.429538 -67.191904 98.160993 0.000007 -0.000011 -10.709902 -63.641681 -19.740690 -25.573318 -0.000003 0.000000 -11.716802 -361.289440 1.197053 15.415252 2.279504 0.210398 -2.475495 375.403753 -14.349430 -5.099705 -0.000003 -0.000014 -20.742794 -16.468868 30.676381 1.018916 0.000000 -0.000002 -16.665997 2.582809 22.437132 13.223195 -1.961889 0.232304 -2.727402 -365.140602 -3.338021 12.633949 -0.000000 -0.000004 -20.526802 515.194885 158.347294 -178.035615 -0.000001 -0.000002 -16.867302 -357.796728 26.802250 -6.915142
-35.366295 45.331699 45.075993 1085.882927 0.113696 -3.563613 -0.637400 0.831599 5.390098 -5.745762 -0.167183 1.349544 -0.000001 -0.000004 4.429901 5.815633 -0.291895 0.511400 -0.000002 -0.000004 10.301396 409.503555 -6.586728 -5.938222 -0.000000 0.000003 2.173898 -356.484238 1.929353 4.264303 2.142393 -0.572703 5.717803 0.268988 -3.370119 -2.018108 5.674000 -0.000004 0.000000 170.952299 158.093129 127.036246 0.000004 -0.000001 -12.238693 201.300223 -517.177990 -161.930507 0.000004 -0.000004 -10.253698 -557.544954 -7.094025 22.380906 -2.882606 -1.580095 6.695788 -0.694856 -4.326128 29.409797 -4.235611 0.000003 -0.000002 5.387277 -67.164283 98.075683 0.000000 -0.000004 -10.709908 -63.710550 -19.726812 -25.560834 -0.000004 0.000003 -11.716789 -361.131499 1.232875 15.294624 2.279499 0.210398 -2.475503 375.323375 -14.319698 -5.128572 -0.000002 -0.000007 -20.742796 -16.343068 30.660251 0.981382 -0.000001 -0.000001 -16.665998 2.530729 22.486403 13.250274 -1.961896 0.232296 -2.727406 -365.116013 -3.303402 12.625670 -0.000006 -0.000003 -20.526796 515.175488 158.356665 -178.045273 -0.000003 0.000004 -16.867298 -357.795935 26.802246 -6.924949
-35.364899 45.327705 45.074192 1085.883254 0.102165 -3.548259 -0.637400 0.831600 5.390096 -5.743069 -0.176659 1.307486 -0.000005 -0.000007 4.429900 5.832552 -0.282471 0.510740 -0.000010 0.000003 10.301408 409.503664 -6.511142 -5.958743 -0.000005 -0.000007 2.173906 -356.462710 1.967692 4.244196 2.142401 -0.572696 5.717799 0.355481 -3.394760 -2.035604 5.673999 0.000004 -0.000004 170.900567 158.120450 127.090136 0.000004 0.000002 -12.238698 201.233438 -517.050511 -161.964931 0.000003 0.000003 -10.253696 -557.377533 -7.217408 22.287554 -2.882602 -1.580096 6.695794 -0.658829 -4.352144 29.477058 -4.235605 0.000002 0.000002 5.209404 -67.078434 97.865355 -0.000002 -0.000010 -10.709888 -63.945392 -19.672601 -25.605461 0.000004 0.000007 -11.716799 -360.865122 1.236453 15.141076 2.279500 0.210407 -2.475502 375.249200 -14.292493 -5.154597 -0.000001 0.000003 -20.742796 -16.254189 30.646813 0.957119 0.000001 0.000002 -16.666000 2.515015 22.515602 13.267234 -1.961896 0.232302 -2.727407 -365.084977 -3.266235 12.617837 0.000001 -0.000005 -20.526798 515.163193 158.373919 -178.064220 -0.000000 0.000004 -16.867300 -357.804842 26.808052 -6.931900
-35.363598 45.323509 45.072693 1085.880960 0.091903 -3.536651 -0.637405 0.831603 5.390104 -5.737611 -0.189424 1.270730 0.000002 -0.000000 4.429897 5.848841 -0.269761 0.509836 -0.000008 0.000003 10.301398 409.497845 -6.440689 -5.976246 -0.000006 0.000006 2.173889 -356.466453 1.997644 4.236282 2.142396 -0.572705 5.717807 0.456166 -3.429690 -2.083329 5.674000 -0.000006 -0.000006 170.848535 158.182222 127.168082 0.000008 0.000004 -12.238697 201.124578 -516.918443 -161.997156 0.000006 0.000003 -10.253700 -557.176670 -7.354643 22.204142 -2.882611 -1.580097 6.695792 -0.610606 -4.384636 29.574002 -4.235612 0.000004 0.000003 4.956689 -67.022666 97.584852 0.000006 0.000000 -10.709894 -64.227247 -19.581392 -25.685905 -0.000003 0.000009 -11.716804 -360.513777 1.202636 14.967490 2.279500 0.210405 -2.475495 375.192864 -14.268712 -5.172741 0.000001 -0.000005 -20.742804 -16.219478 30.642373 0.950616 -0.000006 -0.000001 -16.665998 2.534848 22.519965 13.274888 -1.961895 0.232302 -2.727396 -365.055334 -3.233378 12.611614 -0.000003 -0.000002 -20.526798 515.139643 158.391472 -178.073373 -0.000004 0.000003 -16.867300 -357.800634 26.818610 -6.941813
-35.362701 45.319103 45.071289 1085.878665 0.078727 -3.529047 -0.637399 0.831596 5.390098 -5.732942 -0.198555 1.244591 -0.000002 0.000002 4.429902 5.867624 -0.256452 0.508675 0.000000 0.000000 10.301397 409.483146 -6.388077 -5.992298 -0.000004 0.000002 2.173911 -356.489184 2.016915 4.233236 2.142395 -0.572700 5.717802 0.559426 -3.472583 -2.161932 5.673997 0.000000 -0.000004 170.800833 158.282995 127.263308 0.000012 0.000009 -12.238702 200.972934 -516.800417 -162.022537 0.000004 0.000005 -10.253698 -556.967503 -7.490843 22.130841 -2.882605 -1.580091 6.695796 -0.555816 -4.422762 29.690894 -4.235597 0.000010 0.000000 4.620454 -66.973973 97.226582 0.000009 -0.000008 -10.709892 -64.534633 -19.473184 -25.792369 0.000009 -0.000007 -11.716818 -360.128773 1.139926 14.800026 2.279504 0.210402 -2.475491 375.152402 -14.243992 -5.185185 0.000000 -0.000009 -20.742796 -16.233884 30.642909 0.961131 0.000001 -0.000002 -16.665997 2.586508 22.502048 13.269972 -1.961893 0.232301 -2.727404 -365.018259 -3.198027 12.606656 0.000005 -0.000002 -20.526802 515.094837 158.409996 -178.072471 -0.000009 -0.000004 -16.867302 -357.786619 26.831818 -6.954835
